<?xml version="1.0" standalone="no"?>
<!DOCTYPE svg PUBLIC "-//W3C//DTD SVG 20010904//EN"
 "http://www.w3.org/TR/2001/REC-SVG-20010904/DTD/svg10.dtd">
<svg version="1.0" xmlns="http://www.w3.org/2000/svg"
 width="1024.000000pt" height="1024.000000pt" viewBox="0 0 1024.000000 1024.000000"
 preserveAspectRatio="xMidYMid meet">

<g transform="translate(0.000000,1024.000000) scale(0.100000,-0.100000)"
fill="#000000" stroke="none">
<path d="M0 5120 l0 -5120 4720 0 4720 0 0 80 0 80 320 0 320 0 0 -80 0 -80
80 0 80 0 0 5120 0 5120 -5120 0 -5120 0 0 -5120z m7620 1420 c357 -45 743
-203 974 -400 22 -20 59 -49 81 -65 21 -16 75 -65 119 -108 l80 -78 -27 -22
c-85 -70 -177 -148 -226 -192 -31 -28 -80 -70 -109 -94 l-52 -43 -98 89 c-165
151 -326 246 -534 314 -127 42 -295 69 -425 69 -72 0 -103 -4 -277 -31 -213
-34 -492 -175 -676 -341 -229 -208 -390 -501 -441 -808 -18 -105 -15 -335 4
-445 84 -461 411 -855 857 -1033 329 -131 641 -142 975 -35 390 125 731 440
880 812 19 49 35 91 35 95 0 3 -408 6 -907 6 l-908 0 50 47 c28 26 115 108
195 183 80 75 178 166 217 201 40 35 80 74 88 87 l16 22 931 0 931 0 -6 -182
c-10 -305 -64 -523 -193 -780 -94 -187 -199 -336 -346 -489 -78 -81 -223 -209
-237 -209 -3 0 -17 -10 -31 -23 -35 -32 -229 -153 -309 -192 -71 -35 -228 -95
-327 -126 -249 -77 -617 -91 -901 -34 -276 56 -622 214 -808 369 -27 23 -61
49 -75 58 -72 46 -350 351 -394 431 -6 12 -24 42 -39 65 -293 455 -347 1116
-136 1647 102 256 283 518 485 702 87 80 255 209 312 240 20 12 73 42 117 67
90 52 267 124 395 160 70 20 203 46 360 69 55 9 301 6 380 -3z m-3940 -84
c331 -66 540 -155 779 -329 258 -188 447 -410 588 -687 210 -413 249 -957 102
-1410 -34 -106 -123 -298 -169 -366 -16 -25 -30 -47 -30 -49 0 -16 -163 -216
-239 -292 -252 -256 -562 -432 -912 -517 -199 -48 -211 -49 -1231 -53 l-968
-4 0 1355 0 1356 270 0 270 0 1 -587 c0 -324 2 -802 5 -1063 2 -261 4 -485 4
-498 l0 -23 698 4 c622 3 705 5 771 21 276 65 496 184 681 366 119 117 174
189 240 313 111 210 152 374 154 612 1 219 -33 377 -122 565 -176 374 -466
619 -872 737 l-95 27 -1002 4 -1003 3 0 270 0 270 998 -4 c889 -3 1006 -6
1082 -21z"/>
</g>
</svg>
